<?xml version="1.0" encoding="UTF-8"?><svg id="_层_2" xmlns="http://www.w3.org/2000/svg" xmlns:xlink="http://www.w3.org/1999/xlink" viewBox="0 0 1431.99717 71"><defs><linearGradient id="_命名的渐变_169" x1="0" y1="35.5" x2="1431.99717" y2="35.5" gradientTransform="matrix(1, 0, 0, 1, 0, 0)" gradientUnits="userSpaceOnUse"><stop offset="0" stop-color="#7300bf"/><stop offset=".17362" stop-color="#8510bc"/><stop offset=".52337" stop-color="#b53ab6"/><stop offset="1" stop-color="#ff7bac"/></linearGradient><linearGradient id="_命名的渐变_169-2" x1="655.43613" y1="20.04782" x2="686.19873" y2="20.04782" xlink:href="#_命名的渐变_169"/><linearGradient id="_命名的渐变_169-3" x1="653.53957" y1="47.88189" x2="688.08052" y2="47.88189" xlink:href="#_命名的渐变_169"/><linearGradient id="_命名的渐变_169-4" x1="655.47654" y1="44.03226" x2="686.16941" y2="44.03226" xlink:href="#_命名的渐变_169"/><linearGradient id="_命名的渐变_169-5" x1="658.31471" y1="34.42958" x2="660.2596" y2="34.42958" xlink:href="#_命名的渐变_169"/><linearGradient id="_命名的渐变_169-6" x1="681.33847" y1="34.43225" x2="683.31867" y2="34.43225" xlink:href="#_命名的渐变_169"/><linearGradient id="_命名的渐变_169-7" x1="666.05154" y1="34.42471" x2="667.9029" y2="34.42471" xlink:href="#_命名的渐变_169"/><linearGradient id="_命名的渐变_169-8" x1="673.72903" y1="34.42393" x2="675.5801" y2="34.42393" xlink:href="#_命名的渐变_169"/><linearGradient id="_命名的渐变_169-9" x1="87.7564" y1="31.51516" x2="118.21723" y2="31.51516" xlink:href="#_命名的渐变_169"/><linearGradient id="_命名的渐变_169-10" x1="93.45614" y1="29.61672" x2="112.53415" y2="29.61672" xlink:href="#_命名的渐变_169"/><linearGradient id="_命名的渐变_169-11" x1="93.43828" y1="35.31285" x2="112.51746" y2="35.31285" xlink:href="#_命名的渐变_169"/><linearGradient id="_命名的渐变_169-12" x1="93.45336" y1="41.03012" x2="104.8609" y2="41.03012" xlink:href="#_命名的渐变_169"/><linearGradient id="_命名的渐变_169-13" x1="389.33198" y1="31.51521" x2="424.07818" y2="31.51521" xlink:href="#_命名的渐变_169"/><linearGradient id="_命名的渐变_169-14" x1="405.60718" y1="26.62911" x2="415.35143" y2="26.62911" xlink:href="#_命名的渐变_169"/><linearGradient id="_命名的渐变_169-15" x1="903.5559" y1="32.43886" x2="941.6801" y2="32.43886" xlink:href="#_命名的渐变_169"/><linearGradient id="_命名的渐变_169-16" x1="921.54512" y1="34.53059" x2="923.68542" y2="34.53059" xlink:href="#_命名的渐变_169"/><linearGradient id="_命名的渐变_169-17" x1="921.58851" y1="25.03642" x2="923.65153" y2="25.03642" xlink:href="#_命名的渐变_169"/><linearGradient id="_命名的渐变_169-18" x1="1211.7564" y1="42.82439" x2="1248.68202" y2="42.82439" xlink:href="#_命名的渐变_169"/><linearGradient id="_命名的渐变_169-19" x1="1220.98514" y1="22.85605" x2="1239.44029" y2="22.85605" xlink:href="#_命名的渐变_169"/><linearGradient id="_命名的渐变_169-20" x1="1226.1046" y1="22.85616" x2="1234.32052" y2="22.85616" xlink:href="#_命名的渐变_169"/><linearGradient id="_命名的渐变_169-21" x1="1157.8767" y1="33.97146" x2="1158.8767" y2="33.97146" xlink:href="#_命名的渐变_169"/></defs><g id="_层_8"><g><rect x="1" y="1" width="1429.99717" height="69" rx="34.49997" ry="34.49997" style="fill:none; stroke:url(#_命名的渐变_169); stroke-miterlimit:10; stroke-width:2px;"/><rect x="1" y="1" width="1429.99717" height="69" rx="34.49997" ry="34.49997" style="fill:#ff7bac; opacity:.08; stroke:url(#_命名的渐变_169); stroke-miterlimit:10; stroke-width:2px;"/></g><g><path d="M655.44317,25.7586c0-.58448-.02369-1.13851,.01582-1.68799,.01054-.14659,.18825-.32099,.33346-.41223,3.43875-2.16062,6.88348-4.31171,10.32728-6.46429,1.4614-.91346,2.92699-1.82032,4.38089-2.74555,.23781-.15134,.40307-.14636,.63829,.00111,4.90057,3.07236,9.80551,6.13778,14.71394,9.19757,.24229,.15104,.36094,.31023,.34434,.60931-.02722,.49047-.00737,.98355-.00737,1.50207h-30.74665Zm3.73493-1.92188h23.29017c-.1924-.13368-.29458-.21129-.40294-.27902-3.61877-2.26217-7.24102-4.51882-10.85216-6.7931-.30266-.19062-.50086-.18392-.79735,.00248-3.61514,2.27292-7.23984,4.53063-10.8612,6.79367-.10571,.06606-.20192,.1473-.37652,.27597Z" style="fill:url(#_命名的渐变_169-2);"/><path d="M653.53957,48.8096v-1.85543h34.54095v1.85543h-34.54095Z" style="fill:url(#_命名的渐变_169-3);"/><path d="M686.16941,43.10682v1.85089h-30.69286v-1.85089h30.69286Z" style="fill:url(#_命名的渐变_169-4);"/><path d="M660.25122,34.4349c.00001,2.08491-.00904,4.1699,.00832,6.25467,.00314,.37745-.10824,.50419-.48128,.47453-.37269-.02964-.75002-.01801-1.12445-.0029-.25975,.01048-.35267-.09689-.33142-.34458,.0115-.134,.00178-.26981,.00178-.40481-.00001-4.06483,.00626-8.12969-.00945-12.19446-.00161-.41773,.11475-.5609,.52748-.51963,.32677,.03267,.6612,.02803,.98896,.00076,.34598-.02879,.42882,.10789,.42676,.43673-.01319,2.09983-.00672,4.19978-.00671,6.2997Z" style="fill:url(#_命名的渐变_169-5);"/><path d="M681.3807,34.38905c.00001-2.06992,.00838-4.1399-.00779-6.2097-.00287-.36726,.0902-.51319,.47368-.48194,.38749,.03157,.78123-.01247,1.16843,.02089,.10442,.009,.20832,.16939,.28591,.27906,.03546,.05012,.00681,.14576,.00681,.22076,.00004,4.13984-.0054,8.27969,.00863,12.41948,.00137,.40493-.09404,.57297-.51972,.52589-.45499-.05032-1.06456,.11027-1.32789-.12851-.2303-.20884-.08492-.84417-.08611-1.29114-.00477-1.78492-.00197-3.56985-.00195-5.35478Z" style="fill:url(#_命名的渐变_169-6);"/><path d="M666.05154,27.72469h1.85136v13.40003h-1.85136v-13.40003Z" style="fill:url(#_命名的渐变_169-7);"/><path d="M673.72903,27.72469h1.85107v13.39847h-1.85107v-13.39847Z" style="fill:url(#_命名的渐变_169-8);"/></g><text transform="translate(700.05609 26.75629)" style="fill:#ff7bac; font-family:PingFang-SC-Medium, &apos;PingFang SC&apos;; font-size:14.60032px;"><tspan x="0" y="0">服务级别</tspan></text><g><path d="M99.1248,17.23702c.55501-2.56955,1.86162-3.82906,3.89731-3.79788,2.05453,.03147,3.36525,1.31722,3.81622,3.79788h.5035c2.91373,0,5.82747-.00081,8.7412,.00038,1.36117,.00055,2.13347,.76724,2.13359,2.12063,.00082,9.36369,.00081,18.72738,.00003,28.09106-.00011,1.3848-.76353,2.14245-2.15338,2.14248-8.71147,.00023-17.42293,.0002-26.1344,.00002-1.42418-.00003-2.17227-.74641-2.1723-2.1678-.00022-9.33395-.00026-18.6679,.00005-28.00186,.00005-1.44806,.74343-2.18461,2.20371-2.18481,2.86913-.00038,5.73827-.00011,8.6074-.00012h.55707Zm11.47242,1.93619c0,.18673,.00004,.34639,0,.50606-.0003,1.07016,.01257,2.14053-.00448,3.21042-.01879,1.17896-.79791,1.95963-1.96766,1.9621-3.76117,.00795-7.52238,.00873-11.28355-.00051-1.16888-.00287-1.94567-.79006-1.96198-1.96764-.01482-1.06996-.00349-2.14028-.00368-3.21044-.00003-.15935,0-.31869,0-.48913h-5.67735v28.46708h26.57788V19.17321h-5.67917Zm-1.92295-.02746c-.1944,0-.35582,0-.51723,0-.93671-.00001-1.87393-.01781-2.8099,.0086-.38142,.01076-.48537-.11825-.46711-.48138,.02608-.51875,.0254-1.04146-.00607-1.55992-.06256-1.03038-.90038-1.79025-1.92283-1.77568-.99458,.01417-1.80106,.79184-1.85402,1.80259-.01942,.3707-.01008,.743-.01056,1.11458q-.00117,.89121-.88867,.89121c-.96094,0-1.92189,0-2.89019,0v3.77637h11.36659v-3.77636Z" style="fill:url(#_命名的渐变_169-9);"/><path d="M102.98413,30.56402c-3.0174-.00002-6.03482-.00624-9.05216,.00796-.37172,.00175-.50167-.10325-.47169-.47497,.02977-.36913,.01783-.74297,.00296-1.1139-.01026-.256,.09371-.35408,.34016-.32868,.07353,.00757,.14852,.0009,.22284,.0009,5.97533-.00001,11.95068,.00539,17.92597-.01077,.45401-.00123,.61242,.11263,.56149,.5672-.0475,.42399,.12619,1.03633-.09472,1.2344-.25499,.22864-.83536,.11372-1.27452,.11473-2.7201,.00625-5.44022,.00314-8.16034,.00313Z" style="fill:url(#_命名的渐变_169-10);"/><path d="M102.98613,34.36448c3.0174,.00001,6.03482,.00599,9.05215-.00773,.36713-.00167,.5053,.09526,.47518,.47164-.03072,.38395,.0125,.77395-.02076,1.15747-.0089,.10266-.1673,.21011-.27935,.27928-.06469,.03993-.17392,.008-.2631,.008-5.97534,.00004-11.95069-.00509-17.92598,.01036-.44781,.00116-.61759-.10277-.5648-.56372,.04855-.42402-.1278-1.03565,.09297-1.23548,.25315-.22913,.83451-.11557,1.27337-.11661,2.7201-.00644,5.44022-.00324,8.16033-.00322Z" style="fill:url(#_命名的渐变_169-11);"/><path d="M104.8609,40.07362v1.90869h-.45836c-3.4748,0-6.94963-.00672-10.42436,.00904-.40739,.00185-.55894-.10344-.51849-.51829,.03441-.35297,.01824-.71239,.00368-1.06811-.0103-.25173,.08581-.35836,.33594-.33222,.07343,.00768,.14837,.0009,.22262,.0009,3.4451-.00001,6.89021-.00001,10.33531-.00001h.50367Z" style="fill:url(#_命名的渐变_169-12);"/></g><text transform="translate(132.45952 26.82236)" style="fill:#ff7bac; font-family:PingFang-SC-Medium, &apos;PingFang SC&apos;; font-size:14.60032px;"><tspan x="0" y="0">订单号</tspan></text><text transform="translate(433.14431 26.81157)" style="fill:#ff7bac; font-family:PingFang-SC-Medium, &apos;PingFang SC&apos;; font-size:14.60032px;"><tspan x="0" y="0">提交时间</tspan></text><g><path d="M406.74398,14.14479c9.59053,.00195,17.34007,7.8079,17.3342,17.46039-.0058,9.54509-7.82881,17.2863-17.46307,17.28046-9.54681-.00579-17.28896-7.82727-17.28312-17.46021,.00577-9.52304,7.82431-17.28259,17.41199-17.28064Zm-.01369,32.56299c8.42055-.03615,15.20626-6.84356,15.1697-15.2182-.03675-8.41946-6.84439-15.20322-15.22034-15.16694-8.44118,.03657-15.23009,6.86978-15.16963,15.26863,.06044,8.39574,6.86346,15.15238,15.22026,15.11651Z" style="fill:url(#_命名的渐变_169-13);"/><path d="M407.79394,30.42918h7.55749v2.17468h-.50765c-2.8992,0-5.79844-.00838-8.69753,.00922-.425,.00258-.5407-.12134-.5389-.54201,.01551-3.6276,.01566-7.25533-.00015-10.88293-.00184-.42376,.11755-.57445,.54177-.53773,.38705,.03351,.78119,.03114,1.1687,.0004,.38894-.03086,.48731,.11841,.48399,.49219-.01687,1.89844-.00773,3.79712-.00772,5.69571,0,1.16785,0,2.33571,0,3.59046Z" style="fill:url(#_命名的渐变_169-14);"/></g><g><path d="M922.54633,51.49768c-10.51077-.00635-19.00233-8.57707-18.99042-19.16742,.01179-10.47428,8.58986-18.95944,19.15775-18.95022,10.50024,.00916,18.98354,8.59343,18.96641,19.19217-.01688,10.44585-8.59626,18.93185-19.13374,18.92547Zm17.01889-19.04162c.00084-9.31891-7.57382-16.9525-16.83107-16.96203-9.42867-.0097-17.05989,7.53825-17.06388,16.87768-.00402,9.38495,7.55974,17.00752,16.88022,17.01148,9.40707,.00399,17.01389-7.56367,17.01474-16.92713Z" style="fill:url(#_命名的渐变_169-15);"/><path d="M923.68015,40.87487h-2.12429c0-.19155,0-.35256,0-.51357,0-3.86584,.00814-7.73171-.0107-11.59746-.00226-.46341,.1316-.61233,.58294-.57091,.39326,.03609,.79297,.02031,1.18882,.00363,.28603-.01204,.39203,.107,.36421,.3795-.00835,.08174-.00099,.16507-.00099,.24768,.00001,3.81627,0,7.63255,0,11.44883v.6023Z" style="fill:url(#_命名的渐变_169-16);"/><path d="M923.65153,24.01143v2.04999h-2.06302v-2.04999h2.06302Z" style="fill:url(#_命名的渐变_169-17);"/></g><text transform="translate(955.10571 27.57678)" style="fill:#ff7bac; font-family:PingFang-SC-Medium, &apos;PingFang SC&apos;; font-size:14.60032px;"><tspan x="0" y="0">检测状态</tspan></text><g><path d="M1237.00268,39.798c2.29088-1.24936,4.53796-2.4684,6.77798-3.70025,.70584-.38816,1.39886-.78238,2.25151-.68367,1.2337,.14282,2.09548,.79073,2.4853,1.95885,.38397,1.15061,.0869,2.17913-.79652,3.01797-.19562,.18576-.42566,.33829-.65134,.48891-3.97967,2.65601-7.97369,5.29076-11.93655,7.97161-1.80796,1.22307-3.74088,1.6166-5.88495,1.28745-3.65152-.56057-7.31161-1.06544-10.96965-1.58282-.17712-.02505-.38113,.0233-.55202,.09014-.99551,.38933-1.98393,.79671-2.9765,1.19363-1.59081,.63615-2.98944-.30147-2.99156-2.0086-.00321-2.57838-.00192-5.15676-.00031-7.73514,.00065-1.03878,.4307-1.68837,1.38968-2.07706,1.36268-.55233,2.72662-1.10186,4.0973-1.63382,.27734-.10764,.58654-.18258,.882-.18582,1.53697-.01686,3.07425-.00766,4.61142-.00353,1.15932,.00311,2.23615,.32379,3.26928,.83484,.92787,.45897,1.81332,1.0326,2.87819,1.14834,.26975,.02932,.54153,.05474,.81248,.05584,1.37706,.00558,2.75517,.03547,4.13096-.00682,1.33626-.04107,2.417,.37141,3.1733,1.56995Zm-23.17518,8.17923c.20765-.07776,.35412-.12963,.49836-.18709,1.0377-.41339,2.07278-.83352,3.11435-1.23689,.18526-.07175,.40451-.12941,.59522-.10251,3.88013,.54747,7.7607,1.09281,11.63583,1.67425,1.45669,.21857,2.80027,.02353,4.03596-.80057,4.12708-2.75243,8.25535-5.50308,12.38194-8.25624,.51034-.34049,.65994-.79749,.41159-1.21313-.25328-.42389-.70946-.50672-1.25821-.20891-2.54298,1.38007-5.0851,2.76176-7.62114,4.15452-.1505,.08265-.29709,.24725-.35775,.40704-.55432,1.46015-1.57995,2.18126-3.14873,2.18199-2.48201,.00114-4.96402,.0003-7.44604,.0003h-.52913v-2.04778c.21976,0,.40915,0,.59855,0,2.466-.00003,4.932,.00216,7.398-.00143,.73998-.00108,1.19129-.39502,1.1932-1.02065,.0019-.62206-.4577-1.03123-1.18337-1.03379-1.44115-.00509-2.88237,.0044-4.32348-.00525-.43099-.00288-.86401-.02943-1.29208-.07955-1.25364-.14677-2.33081-.76564-3.4261-1.32485-.85912-.43863-1.75742-.65642-2.72389-.64359-1.31284,.01743-2.6261-.00014-3.9391,.00908-.20256,.00142-.41737,.03323-.60492,.10636-1.22243,.47668-2.43595,.97627-3.65955,1.44985-.28167,.10902-.38104,.25729-.37943,.56286,.01267,2.4022,.0068,4.80451,.00784,7.20678,.00005,.11061,.01157,.22122,.02207,.4092Z" style="fill:url(#_命名的渐变_169-18);"/><path d="M1230.2119,13.62723c5.0896-.00027,9.22471,4.12947,9.22838,9.21638,.00369,5.11327-4.13523,9.24779-9.2511,9.24126-5.08393-.00649-9.20747-4.1462-9.20404-9.24014,.00342-5.08798,4.13681-9.21722,9.22677-9.21749Zm7.18084,9.2166c-.00425-3.9547-3.23355-7.17364-7.19232-7.16926-3.95407,.00437-7.17239,3.23393-7.16822,7.19325,.00417,3.95549,3.23236,7.17333,7.1923,7.16922,3.95394-.0041,7.17251-3.23388,7.16825-7.19322Z" style="fill:url(#_命名的渐变_169-19);"/><path d="M1229.18476,17.69652v-.96113h2.03179l.04715,.97031c1.02652,.08106,1.88511,.47948,2.48686,1.33219,.35747,.50654,.55967,1.06639,.54289,1.7673-.6202,0-1.22221,.00911-1.82327-.0107-.0817-.00269-.19206-.13619-.23228-.23281-.23825-.57236-.51457-.77667-1.12269-.78077-.6883-.00464-1.37668-.00492-2.06497,.00021-.51288,.00382-.81451,.23218-.86995,.64231-.0581,.42981,.13829,.71705,.63033,.88368,1.11959,.37916,2.24259,.74827,3.36305,1.12488,1.45735,.48986,2.29265,1.68165,2.12579,3.02696-.18138,1.46234-1.20966,2.38909-2.79611,2.52078-.06212,.00516-.12372,.01652-.23726,.03208l-.04489,.96512h-2.01245l-.04688-.97064c-1.02644-.08186-1.88309-.48015-2.48826-1.33135-.36098-.50773-.54245-1.0716-.55724-1.76805,.63505,0,1.23709-.01143,1.83768,.01279,.08635,.00348,.19826,.16578,.2428,.27686,.19496,.48616,.53728,.73763,1.06438,.73614,.72034-.00202,1.44075,.00522,2.161-.00268,.46846-.00514,.77266-.24869,.82186-.64069,.05722-.4559-.17103-.73341-.58216-.8721-1.13525-.38296-2.27397-.7556-3.4098-1.13686-1.46422-.49149-2.29327-1.67471-2.12635-3.02661,.18054-1.46227,1.20859-2.38948,2.79521-2.52179,.06218-.00519,.12387-.01643,.26376-.03545Z" style="fill:url(#_命名的渐变_169-20);"/></g><text transform="translate(1263.30621 27.32917)" style="fill:#ff7bac; font-family:PingFang-SC-Medium, &apos;PingFang SC&apos;; font-size:14.60032px;"><tspan x="0" y="0">支付情况</tspan></text><line x1="1158.3767" y1="12.47146" x2="1158.3767" y2="55.47146" style="fill:none; stroke:url(#_命名的渐变_169-21); stroke-miterlimit:10;"/></g></svg>