<?xml version="1.0" encoding="UTF-8"?><svg id="_层_2" xmlns="http://www.w3.org/2000/svg" xmlns:xlink="http://www.w3.org/1999/xlink" viewBox="0 0 26.66001 26.65977"><defs><linearGradient id="_建渐变色板_2" x1="0" y1="13.32988" x2="26.66001" y2="13.32988" gradientTransform="matrix(1, 0, 0, 1, 0, 0)" gradientUnits="userSpaceOnUse"><stop offset="0" stop-color="#7300bf"/><stop offset="1" stop-color="#ff7bac"/></linearGradient><linearGradient id="_建渐变色板_2-2" x1="11.14375" y1="16.29511" x2="15.57462" y2="16.29511" xlink:href="#_建渐变色板_2"/><linearGradient id="_建渐变色板_2-3" x1="5.72897" y1="16.26384" x2="10.14005" y2="16.26384" xlink:href="#_建渐变色板_2"/><linearGradient id="_建渐变色板_2-4" x1="16.50402" y1="16.29734" x2="20.94621" y2="16.29734" xlink:href="#_建渐变色板_2"/><linearGradient id="_建渐变色板_2-5" x1="2.96883" y1="3.70519" x2="4.44301" y2="3.70519" xlink:href="#_建渐变色板_2"/><linearGradient id="_建渐变色板_2-6" x1="5.92395" y1="3.70627" x2="7.40665" y2="3.70627" xlink:href="#_建渐变色板_2"/><linearGradient id="_建渐变色板_2-7" x1="8.88768" y1="3.70552" x2="10.3623" y2="3.70552" xlink:href="#_建渐变色板_2"/></defs><g id="_层_7"><g><path d="M.00041,13.33012c-.00001-3.88665-.00018-7.77331,.0001-11.65996C.00058,.58897,.58857,.00029,1.66986,.00025c7.78488-.00032,15.56975-.00036,23.35463,.00005,1.03403,.00005,1.63497,.60001,1.63505,1.63454,.00062,7.80801,.00067,15.61602-.00008,23.42403-.00009,.9876-.61098,1.59994-1.59966,1.60008-7.83115,.00109-15.66229,.00116-23.49344-.00013-.94256-.00015-1.56428-.62024-1.56489-1.56464C-.00103,21.17282,.00042,17.25147,.00041,13.33012ZM1.47892,7.4279v.42056c0,5.63316,.00338,11.26632-.00811,16.89945-.00072,.35048,.08532,.44157,.4393,.44106,7.61111-.01091,15.22223-.01054,22.83334-.00092,.34093,.00043,.44736-.07012,.44653-.43376-.01285-5.64469-.00899-11.28943-.00899-16.93415v-.39225H1.47892Zm23.66714-1.525c.01284-.06743,.03234-.12232,.03243-.17725,.00202-1.33001-.00361-2.66006,.00693-3.98999,.00214-.27018-.14949-.25826-.33365-.25822-7.67938,.00142-15.35877,.00294-23.03814-.0054-.29308-.00032-.34146,.1062-.33935,.36227,.01031,1.24897,.00424,2.49807,.00548,3.74713,.0001,.10126,.01168,.2025,.01902,.32147H25.14606Z" style="fill:url(#_建渐变色板_2);"/><path d="M14.09484,10.38823h1.47978l-2.94971,11.81374h-1.48115l2.95108-11.81374Z" style="fill:url(#_建渐变色板_2-2);"/><path d="M7.74372,16.28192l2.39633,2.39137-.99902,.9903-3.41206-3.41155,3.38816-3.38795,.98954,1.05909-2.36294,2.35874Z" style="fill:url(#_建渐变色板_2-3);"/><path d="M20.94621,16.28146l-3.41526,3.42362-1.00242-.98716,2.40292-2.39761-2.42743-2.42408,1.05238-1.00661,3.38981,3.39184Z" style="fill:url(#_建渐变色板_2-4);"/><path d="M2.9689,3.7173c-.00529-.42515,.31581-.75129,.73787-.74945,.39961,.00174,.73014,.32562,.73616,.72134,.00622,.40933-.33378,.7539-.74338,.75336-.39884-.00052-.72566-.32493-.73064-.72525Z" style="fill:url(#_建渐变色板_2-5);"/><path d="M7.40653,3.71715c-.00714,.40995-.35926,.74111-.77111,.72523-.39801-.01535-.72104-.35616-.71125-.75038,.01026-.41312,.35544-.7358,.7723-.72196,.39863,.01323,.717,.34822,.71006,.74711Z" style="fill:url(#_建渐变色板_2-6);"/><path d="M10.36224,3.71304c-.00491,.39916-.3321,.72711-.72791,.7296-.4094,.00257-.7508-.3404-.74662-.75006,.00407-.39955,.33006-.72219,.73169-.72417,.42368-.00209,.74803,.32304,.74284,.74463Z" style="fill:url(#_建渐变色板_2-7);"/></g></g></svg>