<?xml version="1.0" encoding="UTF-8"?><svg id="_层_2" xmlns="http://www.w3.org/2000/svg" xmlns:xlink="http://www.w3.org/1999/xlink" viewBox="0 0 243 233"><defs><linearGradient id="_建渐变色板_5" x1="72.78012" y1="104.36967" x2="168.53229" y2="104.36967" gradientTransform="matrix(1, 0, 0, 1, 0, 0)" gradientUnits="userSpaceOnUse"><stop offset="0" stop-color="#3c4ffc"/><stop offset="1" stop-color="#b337fc"/></linearGradient><linearGradient id="_建渐变色板_5-2" x1="71.78012" x2="169.53229" xlink:href="#_建渐变色板_5"/><filter id="drop-shadow-1" filterUnits="userSpaceOnUse"><feOffset dx="1" dy="12"/><feGaussianBlur result="blur" stdDeviation="24"/><feFlood flood-color="#7600ff" flood-opacity=".87"/><feComposite in2="blur" operator="in"/><feComposite in="SourceGraphic"/></filter><linearGradient id="_建渐变色板_5-3" x1="71.78012" x2="169.53229" xlink:href="#_建渐变色板_5"/><filter id="drop-shadow-2" filterUnits="userSpaceOnUse"><feOffset dx="1" dy="12"/><feGaussianBlur result="blur-2" stdDeviation="24"/><feFlood flood-color="#7600ff" flood-opacity=".87"/><feComposite in2="blur-2" operator="in"/><feComposite in="SourceGraphic"/></filter></defs><g id="_层_1-2"><path d="M137.54689,61.01943h-33.78136c-5.03556,0-9.68861,2.68644-12.20639,7.04736l-16.89068,29.25552c-2.51778,4.36092-2.51778,9.7338,0,14.09473l16.89068,29.25552c2.51778,4.36092,7.17083,7.04736,12.20639,7.04736h33.78136c5.03556,0,9.68861-2.68644,12.20639-7.04736l16.89068-29.25552c2.51778-4.36092,2.51778-9.7338,0-14.09473l-16.89068-29.25552c-2.51778-4.36092-7.17083-7.04736-12.20639-7.04736Z" style="fill:url(#_建渐变色板_5); filter:url(#drop-shadow-1); opacity:.46; stroke:url(#_建渐变色板_5-2); stroke-miterlimit:10; stroke-width:2px;"/><path d="M137.54689,61.01943h-33.78136c-5.03556,0-9.68861,2.68644-12.20639,7.04736l-16.89068,29.25552c-2.51778,4.36092-2.51778,9.7338,0,14.09473l16.89068,29.25552c2.51778,4.36092,7.17083,7.04736,12.20639,7.04736h33.78136c5.03556,0,9.68861-2.68644,12.20639-7.04736l16.89068-29.25552c2.51778-4.36092,2.51778-9.7338,0-14.09473l-16.89068-29.25552c-2.51778-4.36092-7.17083-7.04736-12.20639-7.04736Z" style="fill:none; filter:url(#drop-shadow-2); opacity:.46; stroke:url(#_建渐变色板_5-3); stroke-miterlimit:10; stroke-width:2px;"/></g></svg>