<?xml version="1.0" encoding="UTF-8"?><svg id="_层_2" xmlns="http://www.w3.org/2000/svg" xmlns:xlink="http://www.w3.org/1999/xlink" viewBox="0 0 1693.77474 67.0001"><defs><linearGradient id="_建渐变色板_4" x1="561.5" y1="33" x2="1021.5" y2="33" gradientTransform="matrix(1, 0, 0, 1, 0, 0)" gradientUnits="userSpaceOnUse"><stop offset="0" stop-color="#7300bf" stop-opacity="0"/><stop offset=".05406" stop-color="#7300bf" stop-opacity=".21253"/><stop offset=".13333" stop-color="#7300bf" stop-opacity=".4911"/><stop offset=".20746" stop-color="#7300bf" stop-opacity=".71122"/><stop offset=".27417" stop-color="#7300bf" stop-opacity=".86936"/><stop offset=".33106" stop-color="#7300bf" stop-opacity=".96563"/><stop offset=".37145" stop-color="#7300bf"/><stop offset=".41837" stop-color="#7b07bd"/><stop offset=".49498" stop-color="#941dba"/><stop offset=".59175" stop-color="#bc40b5"/><stop offset=".70387" stop-color="#f270ad"/><stop offset=".72695" stop-color="#ff7bac"/><stop offset="1" stop-color="#ff7bac" stop-opacity="0"/></linearGradient><linearGradient id="_建渐变色板_4-2" x1="577.50002" y1="65.99038" x2="1010.50002" y2="65.99038" gradientTransform="translate(-52.98719 1.84352) rotate(-.12429) scale(1.06467 1)" xlink:href="#_建渐变色板_4"/><linearGradient id="_建渐变色板_4-3" x1="594" y1=".5" x2="990" y2=".5" xlink:href="#_建渐变色板_4"/><linearGradient id="_建渐变色板_3" x1="537.5" y1=".5" x2="585.5" y2=".5" gradientTransform="matrix(1, 0, 0, 1, 0, 0)" gradientUnits="userSpaceOnUse"><stop offset="0" stop-color="#7300bf"/><stop offset=".52482" stop-color="#ff7bac"/><stop offset="1" stop-color="#ff7bac" stop-opacity="0"/></linearGradient><linearGradient id="_建渐变色板_3-2" x1="537.0213" y1="31.5" x2="556.9787" y2="31.5" gradientTransform="translate(.92359 -.84984) rotate(.144) skewX(-.29859)" xlink:href="#_建渐变色板_3"/><linearGradient id="_建渐变色板_3-3" x1="80.5" y1=".5" x2="128.5" y2=".5" gradientTransform="translate(1123) rotate(-180) scale(1 -1)" xlink:href="#_建渐变色板_3"/><linearGradient id="_建渐变色板_3-4" x1="79.66979" y1="32.65863" x2="99.62719" y2="32.65863" gradientTransform="translate(1122.07641 -.84984) rotate(179.856) scale(.99922 -.99132) skewX(-.29859)" xlink:href="#_建渐变色板_3"/><linearGradient id="_建渐变色板_2" x1="513.00284" y1="31.56085" x2="532.96024" y2="31.56085" gradientTransform="translate(.92359 -.84984) rotate(.144) skewX(-.29859)" gradientUnits="userSpaceOnUse"><stop offset="0" stop-color="#7300bf"/><stop offset="1" stop-color="#ff7bac"/></linearGradient><linearGradient id="_建渐变色板_10" x1="3" y1=".5" x2="514" y2=".5" gradientTransform="matrix(1, 0, 0, 1, 0, 0)" gradientUnits="userSpaceOnUse"><stop offset="0" stop-color="#ff7bac" stop-opacity="0"/><stop offset=".52482" stop-color="#ff7bac"/><stop offset="1" stop-color="#7300bf"/></linearGradient><linearGradient id="_建渐变色板_11" x1="3" y1="63.5" x2="533" y2="63.5" gradientTransform="matrix(1, 0, 0, 1, 0, 0)" gradientUnits="userSpaceOnUse"><stop offset="0" stop-color="#ff7bac" stop-opacity="0"/><stop offset=".1018" stop-color="#db5bb0" stop-opacity=".25442"/><stop offset=".24187" stop-color="#ae34b6" stop-opacity=".57222"/><stop offset=".36106" stop-color="#8e18bb" stop-opacity=".80426"/><stop offset=".45319" stop-color="#7a06bd" stop-opacity=".94696"/><stop offset=".50709" stop-color="#7300bf"/><stop offset=".57315" stop-color="#7905be"/><stop offset=".66493" stop-color="#8b15bb"/><stop offset=".77179" stop-color="#a82fb7"/><stop offset=".88903" stop-color="#d153b2"/><stop offset="1" stop-color="#ff7bac"/></linearGradient><linearGradient id="_建渐变色板_2-2" x1="-531.29979" y1="34.20644" x2="-511.34239" y2="34.20644" gradientTransform="translate(535.07641 -.84984) rotate(179.856) scale(.99922 -.99132) skewX(-.29859)" xlink:href="#_建渐变色板_2"/><linearGradient id="_建渐变色板_10-2" x1="-1153.5" y1=".5" x2="-528.83742" y2=".5" gradientTransform="translate(536) rotate(-180) scale(1 -1)" xlink:href="#_建渐变色板_10"/><linearGradient id="_建渐变色板_11-2" x1="-1040.5" y1="63.5" x2="-510.5" y2="63.5" gradientTransform="translate(536) rotate(-180) scale(1 -1)" xlink:href="#_建渐变色板_11"/><linearGradient id="_建渐变色板_3-5" x1="516" y1="38" x2="0" y2="38" xlink:href="#_建渐变色板_3"/><linearGradient id="_命名的渐变_60" x1="502.48846" y1="5.84231" x2="450.14804" y2="9.67209" gradientTransform="matrix(1, 0, 0, 1, 0, 0)" gradientUnits="userSpaceOnUse"><stop offset=".37145" stop-color="#7300bf"/><stop offset=".41837" stop-color="#7b07bd"/><stop offset=".49498" stop-color="#941dba"/><stop offset=".59175" stop-color="#bc40b5"/><stop offset=".70387" stop-color="#f270ad"/><stop offset=".72695" stop-color="#ff7bac"/><stop offset="1" stop-color="#ff7bac" stop-opacity="0"/></linearGradient><linearGradient id="_建渐变色板_4-4" x1="502.41923" y1="4.89615" x2="450.07881" y2="8.72594" xlink:href="#_建渐变色板_4"/><linearGradient id="_建渐变色板_4-5" x1="502.35" y1="3.95" x2="450.00957" y2="7.77979" xlink:href="#_建渐变色板_4"/><linearGradient id="_建渐变色板_4-6" x1="502.28077" y1="3.00385" x2="449.94034" y2="6.83363" xlink:href="#_建渐变色板_4"/><linearGradient id="_建渐变色板_3-6" x1="-547" y1="38" x2="-1177.77474" y2="38" gradientTransform="translate(516) rotate(-180) scale(1 -1)" xlink:href="#_建渐变色板_3"/><linearGradient id="_命名的渐变_60-2" x1="-560.51154" y1="5.84231" x2="-612.85196" y2="9.6721" gradientTransform="translate(516) rotate(-180) scale(1 -1)" xlink:href="#_命名的渐变_60"/><linearGradient id="_建渐变色板_4-7" x1="-560.58077" y1="4.89615" x2="-612.92119" y2="8.72594" gradientTransform="translate(516) rotate(-180) scale(1 -1)" xlink:href="#_建渐变色板_4"/><linearGradient id="_建渐变色板_4-8" x1="-560.65" y1="3.95" x2="-612.99043" y2="7.77979" gradientTransform="translate(516) rotate(-180) scale(1 -1)" xlink:href="#_建渐变色板_4"/><linearGradient id="_建渐变色板_4-9" x1="-560.71923" y1="3.00385" x2="-613.05966" y2="6.83363" gradientTransform="translate(516) rotate(-180) scale(1 -1)" xlink:href="#_建渐变色板_4"/></defs><g id="_层_11"><g id="_层_14" style="opacity:.39;"><rect x="561.5" y=".5" width="460" height="65" style="fill:url(#_建渐变色板_4);"/></g><line x1="562.00048" y1="66.5001" x2="1023.00077" y2="65.50004" style="fill:none; stroke:url(#_建渐变色板_4-2); stroke-miterlimit:10;"/><line x1="594" y1=".5" x2="990" y2=".5" style="fill:none; stroke:url(#_建渐变色板_4-3); stroke-miterlimit:10;"/><line x1="537.5" y1=".5" x2="585.5" y2=".5" style="fill:none; stroke:url(#_建渐变色板_3); stroke-miterlimit:10;"/><line x1="538" y1=".5" x2="556.5" y2="63" style="fill:none; stroke:url(#_建渐变色板_3-2); stroke-miterlimit:10;"/><line x1="1042.5" y1=".5" x2="994.5" y2=".5" style="fill:none; stroke:url(#_建渐变色板_3-3); stroke-miterlimit:10;"/><text transform="translate(592.43555 39.5791)" style="fill:#fff; font-family:PingFang-SC-Bold, &apos;PingFang SC&apos;; font-size:33.06582px; letter-spacing:.06em;"><tspan x="0" y="0">漏洞数据可视化·数字大屏</tspan></text><line x1="1042" y1=".5" x2="1023.5" y2="63" style="fill:none; stroke:url(#_建渐变色板_3-4); stroke-miterlimit:10;"/><line x1="514" y1=".5" x2="532.5" y2="63" style="fill:none; stroke:url(#_建渐变色板_2); stroke-miterlimit:10;"/><line x1="514" y1=".5" x2="3" y2=".5" style="fill:none; stroke:url(#_建渐变色板_10); stroke-miterlimit:10;"/><line x1="533" y1="63.5" x2="3" y2="63.5" style="fill:none; stroke:url(#_建渐变色板_11); stroke-miterlimit:10;"/><line x1="1065.5" y1=".5" x2="1047" y2="63" style="fill:none; stroke:url(#_建渐变色板_2-2); stroke-miterlimit:10;"/><line x1="1064.83742" y1=".5" x2="1689.5" y2=".5" style="fill:none; stroke:url(#_建渐变色板_10-2); stroke-miterlimit:10;"/><line x1="1046.5" y1="63.5" x2="1576.5" y2="63.5" style="fill:none; stroke:url(#_建渐变色板_11-2); stroke-miterlimit:10;"/><polygon points="516 63.5 0 63.5 0 12.5 500 12.5 516 63.5" style="fill:url(#_建渐变色板_3-5); opacity:.52;"/><polygon points="499.5 11 489.9 11 487.5 2 497.1 2 499.5 11" style="fill:url(#_命名的渐变_60);"/><polygon points="486.5 11 476.9 11 474.5 2 484.1 2 486.5 11" style="fill:url(#_建渐变色板_4-4);"/><polygon points="473.5 11 463.9 11 461.5 2 471.1 2 473.5 11" style="fill:url(#_建渐变色板_4-5);"/><polygon points="460.5 11 450.9 11 448.5 2 458.1 2 460.5 11" style="fill:url(#_建渐变色板_4-6);"/><polygon points="1063 63.5 1693.77474 63.5 1693.77474 12.5 1082.55891 12.5 1063 63.5" style="fill:url(#_建渐变色板_3-6); opacity:.52;"/><polygon points="1079.5 11 1089.1 11 1091.5 2 1081.9 2 1079.5 11" style="fill:url(#_命名的渐变_60-2);"/><polygon points="1092.5 11 1102.1 11 1104.5 2 1094.9 2 1092.5 11" style="fill:url(#_建渐变色板_4-7);"/><polygon points="1105.5 11 1115.1 11 1117.5 2 1107.9 2 1105.5 11" style="fill:url(#_建渐变色板_4-8);"/><polygon points="1118.5 11 1128.1 11 1130.5 2 1120.9 2 1118.5 11" style="fill:url(#_建渐变色板_4-9);"/></g></svg>