<?xml version="1.0" encoding="UTF-8"?><svg id="_层_2" xmlns="http://www.w3.org/2000/svg" xmlns:xlink="http://www.w3.org/1999/xlink" viewBox="0 0 79.14493 61.49014"><defs><linearGradient id="_命名的渐变_169" x1="0" y1="24.19147" x2="79.14493" y2="24.19147" gradientTransform="matrix(1, 0, 0, 1, 0, 0)" gradientUnits="userSpaceOnUse"><stop offset="0" stop-color="#7300bf"/><stop offset=".17362" stop-color="#8510bc"/><stop offset=".52337" stop-color="#b53ab6"/><stop offset="1" stop-color="#ff7bac"/></linearGradient><linearGradient id="_命名的渐变_169-2" x1="29.43318" y1="43.66799" x2="49.6526" y2="43.66799" xlink:href="#_命名的渐变_169"/></defs><g id="_层_7"><g><path d="M30.72256,43.97208v4.26538c-.19026,.04073-.38092,.11723-.57157,.11717-5.32385-.0016-10.65008,.0872-15.97099-.04182C5.99038,48.11422-.31825,41.26133,.01243,33.0933c.2821-6.96822,6.25603-13.14316,13.21747-13.66221,2.04954-.15282,1.98745-.17374,2.62134-2.05525C19.15555,7.56793,25.99323,1.81114,36.16703,.28059c10.22205-1.53781,20.02788,3.34182,25.01031,12.27197,.8185,1.46703,1.70368,1.99803,3.31597,2.20424,7.99181,1.02213,14.29886,7.92752,14.63595,15.82578,.34888,8.1743-5.16159,15.44361-13.16215,17.27884-1.29443,.29693-2.64572,.45806-3.97357,.47641-4.29277,.05934-8.58685,.02346-12.88043,.02133-.19994-.0001-.39986-.02865-.66885-.04923v-4.33784c.37075,0,.73675,.00002,1.10277,0,4.15619-.00021,8.31261,.02756,12.46851-.00705,6.54715-.05451,11.94186-4.87668,12.64856-11.25778,.69273-6.25503-3.58112-12.09896-9.92917-13.44184-1.46442-.30979-2.99477-.35363-4.49887-.4095-.69018-.02563-1.03393-.23003-1.28407-.87352-1.33946-3.44575-3.29945-6.46608-6.1772-8.84701C41.61718-.09594,24.49229,4.73808,20.14428,18.37771c-.54887,1.7218-.85653,3.52051-1.29845,5.37821-1.45926,0-2.93354-.06149-4.40112,.01166-4.20578,.20963-7.3694,2.18841-9.12776,6.0039-1.73773,3.77072-1.14046,7.3945,1.53548,10.57253,2.03555,2.41749,4.73145,3.59647,7.8835,3.61866,4.91167,.0346,9.82376,.00931,14.73568,.00941,.37439,0,.74879,0,1.25096,0Z" style="fill:url(#_命名的渐变_169);"/><path d="M32.52488,39.06669l-3.09171-3.0927,10.11097-10.12815,10.10844,10.10879-2.89103,2.78299c-1.46382-1.54911-3.00604-3.1812-4.54827-4.8133l-.39479,.23508v27.33074h-4.43978v-27.5802l-4.85384,5.15675Z" style="fill:url(#_命名的渐变_169-2);"/></g></g></svg>