<?xml version="1.0" encoding="UTF-8"?><svg id="_层_2" xmlns="http://www.w3.org/2000/svg" xmlns:xlink="http://www.w3.org/1999/xlink" viewBox="0 0 698 402"><defs><linearGradient id="_命名的渐变_169" x1="0" y1="201" x2="698" y2="201" gradientTransform="matrix(1, 0, 0, 1, 0, 0)" gradientUnits="userSpaceOnUse"><stop offset="0" stop-color="#7300bf"/><stop offset=".17362" stop-color="#8510bc"/><stop offset=".52337" stop-color="#b53ab6"/><stop offset="1" stop-color="#ff7bac"/></linearGradient></defs><g id="_层_8"><path d="M147,37.2234V14.7766c0-7.6086-6.16799-13.7766-13.7766-13.7766H14.7766C7.16799,1,1,7.16799,1,14.7766V387.2234c0,7.6086,6.16799,13.7766,13.7766,13.7766H683.2234c7.6086,0,13.7766-6.16799,13.7766-13.7766V64.7766c0-7.6086-6.16799-13.7766-13.7766-13.7766H160.7766c-7.6086,0-13.7766-6.16799-13.7766-13.7766Z" style="fill:#ff7bac; opacity:.08;"/><path d="M147,37.2234V14.7766c0-7.6086-6.16799-13.7766-13.7766-13.7766H14.7766C7.16799,1,1,7.16799,1,14.7766V387.2234c0,7.6086,6.16799,13.7766,13.7766,13.7766H683.2234c7.6086,0,13.7766-6.16799,13.7766-13.7766V64.7766c0-7.6086-6.16799-13.7766-13.7766-13.7766H160.7766c-7.6086,0-13.7766-6.16799-13.7766-13.7766Z" style="fill:none; stroke:url(#_命名的渐变_169); stroke-miterlimit:10; stroke-width:2px;"/></g></svg>