<?xml version="1.0" encoding="UTF-8"?><svg id="_层_2" xmlns="http://www.w3.org/2000/svg" xmlns:xlink="http://www.w3.org/1999/xlink" viewBox="0 0 834 691"><defs><linearGradient id="_命名的渐变_169" x1="0" y1="345.5" x2="834" y2="345.5" gradientTransform="matrix(1, 0, 0, 1, 0, 0)" gradientUnits="userSpaceOnUse"><stop offset="0" stop-color="#7300bf"/><stop offset=".17362" stop-color="#8510bc"/><stop offset=".52337" stop-color="#b53ab6"/><stop offset="1" stop-color="#ff7bac"/></linearGradient></defs><g id="_层_8"><g><path d="M164,44.7234V14.2766c0-7.33246-5.94413-13.2766-13.2766-13.2766H14.2766C6.94413,1,1,6.94413,1,14.2766V676.7234c0,7.33246,5.94413,13.2766,13.2766,13.2766H819.7234c7.33246,0,13.2766-5.94413,13.2766-13.2766V71.2766c0-7.33246-5.94413-13.2766-13.2766-13.2766H177.2766c-7.33246,0-13.2766-5.94413-13.2766-13.2766Z" style="fill:#ff7bac; opacity:.08; stroke:url(#_命名的渐变_169); stroke-miterlimit:10; stroke-width:2px;"/><path d="M164,44.7234V14.2766c0-7.33246-5.94413-13.2766-13.2766-13.2766H14.2766C6.94413,1,1,6.94413,1,14.2766V676.7234c0,7.33246,5.94413,13.2766,13.2766,13.2766H819.7234c7.33246,0,13.2766-5.94413,13.2766-13.2766V71.2766c0-7.33246-5.94413-13.2766-13.2766-13.2766H177.2766c-7.33246,0-13.2766-5.94413-13.2766-13.2766Z" style="fill:none; stroke:url(#_命名的渐变_169); stroke-miterlimit:10; stroke-width:2px;"/></g></g></svg>